G04 MADE WITH FRITZING*
G04 WWW.FRITZING.ORG*
G04 SINGLE SIDED*
G04 HOLES NOT PLATED*
G04 CONTOUR ON CENTER OF CONTOUR VECTOR*
%ASAXBY*%
%FSLAX23Y23*%
%MOIN*%
%OFA0B0*%
%SFA1.0B1.0*%
%ADD10C,0.083307*%
%ADD11C,0.075000*%
%ADD12C,0.024000*%
%LNCOPPER0*%
G90*
G70*
G54D10*
X195Y2233D03*
X295Y2233D03*
X395Y2233D03*
X495Y2233D03*
X595Y2233D03*
X695Y2233D03*
X795Y2233D03*
X895Y2233D03*
X995Y2233D03*
X1095Y2233D03*
X1256Y2233D03*
X1356Y2233D03*
X1456Y2233D03*
X1556Y2233D03*
X1656Y2233D03*
X1756Y2233D03*
X1856Y2233D03*
X1956Y2233D03*
X556Y333D03*
X656Y333D03*
X756Y333D03*
X856Y333D03*
X956Y333D03*
X1056Y333D03*
X1156Y333D03*
X1256Y333D03*
X1456Y333D03*
X1556Y333D03*
X1656Y333D03*
X1756Y333D03*
X1856Y333D03*
X1956Y333D03*
X1556Y2933D03*
X1556Y2833D03*
X1556Y2733D03*
X756Y2933D03*
X756Y2833D03*
X756Y2733D03*
X556Y2933D03*
X556Y2833D03*
X556Y2733D03*
X356Y2933D03*
X356Y2833D03*
X356Y2733D03*
X1156Y2933D03*
X1156Y2833D03*
X1156Y2733D03*
X956Y2933D03*
X956Y2833D03*
X956Y2733D03*
X1356Y2933D03*
X1356Y2833D03*
X1356Y2733D03*
X2456Y733D03*
X2456Y633D03*
X2456Y533D03*
X2456Y433D03*
X2256Y2833D03*
X2256Y2933D03*
X2456Y2833D03*
X2456Y2933D03*
X2456Y2633D03*
X2456Y2533D03*
X2256Y2633D03*
X2256Y2533D03*
X2356Y3233D03*
X2456Y3233D03*
X2456Y1733D03*
X2456Y1633D03*
X2456Y1533D03*
X2456Y1433D03*
X2456Y1333D03*
X2456Y1233D03*
X2456Y1133D03*
X2456Y1033D03*
G54D11*
X1656Y2033D03*
X2556Y2033D03*
X2556Y833D03*
X2556Y533D03*
G54D12*
X2456Y3203D02*
X2456Y2963D01*
D02*
X1450Y2262D02*
X1362Y2703D01*
D02*
X726Y2833D02*
X587Y2833D01*
D02*
X2437Y1209D02*
X1774Y357D01*
D02*
X2438Y1008D02*
X1973Y357D01*
D02*
X1254Y2431D02*
X1165Y2704D01*
D02*
X1342Y2260D02*
X1254Y2431D01*
D02*
X386Y2933D02*
X525Y2933D01*
D02*
X992Y2263D02*
X958Y2703D01*
D02*
X726Y2933D02*
X587Y2933D01*
D02*
X525Y2833D02*
X386Y2833D01*
D02*
X1526Y2833D02*
X1386Y2833D01*
D02*
X926Y2833D02*
X786Y2833D01*
D02*
X1526Y2933D02*
X1386Y2933D01*
D02*
X986Y2833D02*
X1126Y2833D01*
D02*
X2434Y1754D02*
X1977Y2212D01*
D02*
X2426Y2933D02*
X2286Y2933D01*
D02*
X2434Y1654D02*
X1877Y2212D01*
D02*
X555Y2432D02*
X772Y2252D01*
D02*
X556Y2702D02*
X555Y2432D01*
D02*
X2286Y2533D02*
X2426Y2533D01*
D02*
X1326Y2833D02*
X1186Y2833D01*
D02*
X2437Y1309D02*
X1675Y356D01*
D02*
X1126Y2933D02*
X986Y2933D01*
D02*
X2426Y2833D02*
X2286Y2833D01*
D02*
X2456Y2663D02*
X2456Y2803D01*
D02*
X1650Y2262D02*
X1562Y2703D01*
D02*
X1556Y234D02*
X1556Y303D01*
D02*
X2055Y234D02*
X1556Y234D01*
D02*
X2432Y515D02*
X2055Y234D01*
D02*
X357Y2431D02*
X572Y2252D01*
D02*
X356Y2703D02*
X357Y2431D01*
D02*
X2426Y2633D02*
X2286Y2633D01*
D02*
X926Y2933D02*
X786Y2933D01*
D02*
X2438Y1109D02*
X1874Y357D01*
D02*
X2433Y1453D02*
X1578Y2213D01*
D02*
X1326Y2933D02*
X1186Y2933D01*
D02*
X2434Y1554D02*
X1777Y2212D01*
D02*
X1756Y3031D02*
X1654Y2831D01*
D02*
X1654Y2831D02*
X1586Y2832D01*
D02*
X2327Y3223D02*
X1756Y3031D01*
D02*
X757Y2431D02*
X756Y2703D01*
D02*
X878Y2258D02*
X757Y2431D01*
D02*
X2256Y2663D02*
X2256Y2803D01*
D02*
X2657Y632D02*
X2486Y633D01*
D02*
X2657Y133D02*
X2657Y632D01*
D02*
X1455Y133D02*
X2657Y133D01*
D02*
X1456Y303D02*
X1455Y133D01*
D02*
X1263Y362D02*
X1649Y2005D01*
D02*
X2454Y2232D02*
X2543Y2058D01*
D02*
X2456Y2503D02*
X2454Y2232D01*
D02*
X2657Y733D02*
X2486Y733D01*
D02*
X2657Y2633D02*
X2657Y733D01*
D02*
X2486Y2633D02*
X2657Y2633D01*
D02*
X2657Y2834D02*
X2486Y2833D01*
D02*
X1757Y3433D02*
X2657Y3433D01*
D02*
X1567Y2961D02*
X1757Y3433D01*
D02*
X2657Y3433D02*
X2657Y2834D01*
D02*
X2477Y454D02*
X2536Y513D01*
D02*
X2556Y2004D02*
X2556Y862D01*
D02*
X256Y2431D02*
X256Y2833D01*
D02*
X256Y2833D02*
X334Y2912D01*
D02*
X472Y2252D02*
X256Y2431D01*
G04 End of Copper0*
M02*