G04 MADE WITH FRITZING*
G04 WWW.FRITZING.ORG*
G04 DOUBLE SIDED*
G04 HOLES PLATED*
G04 CONTOUR ON CENTER OF CONTOUR VECTOR*
%ASAXBY*%
%FSLAX23Y23*%
%MOIN*%
%OFA0B0*%
%SFA1.0B1.0*%
%ADD10C,0.083307*%
%ADD11C,0.075000*%
%ADD12C,0.048000*%
%ADD13C,0.032000*%
%LNCOPPER0*%
G90*
G70*
G54D10*
X2422Y767D03*
X2422Y667D03*
X2422Y567D03*
X2422Y467D03*
X2422Y2867D03*
X2422Y2967D03*
X2222Y2867D03*
X2222Y2967D03*
X2422Y2667D03*
X2422Y2567D03*
X2222Y2667D03*
X2222Y2567D03*
X2322Y3267D03*
X2422Y3267D03*
X2422Y1867D03*
X2422Y1767D03*
X2422Y1667D03*
X2422Y1567D03*
X2422Y1467D03*
X2422Y1367D03*
X2422Y1267D03*
X2422Y1167D03*
G54D11*
X1322Y2067D03*
X2422Y2067D03*
G54D10*
X161Y2267D03*
X261Y2267D03*
X361Y2267D03*
X461Y2267D03*
X561Y2267D03*
X661Y2267D03*
X761Y2267D03*
X861Y2267D03*
X961Y2267D03*
X1061Y2267D03*
X1222Y2267D03*
X1322Y2267D03*
X1422Y2267D03*
X1522Y2267D03*
X1622Y2267D03*
X1722Y2267D03*
X1822Y2267D03*
X1922Y2267D03*
X522Y367D03*
X622Y367D03*
X722Y367D03*
X822Y367D03*
X922Y367D03*
X1022Y367D03*
X1122Y367D03*
X1222Y367D03*
X1422Y367D03*
X1522Y367D03*
X1622Y367D03*
X1722Y367D03*
X1822Y367D03*
X1922Y367D03*
X1522Y2967D03*
X1522Y2867D03*
X1522Y2767D03*
X722Y2967D03*
X722Y2867D03*
X722Y2767D03*
X522Y2967D03*
X522Y2867D03*
X522Y2767D03*
X322Y2967D03*
X322Y2867D03*
X322Y2767D03*
X1122Y2967D03*
X1122Y2867D03*
X1122Y2767D03*
X922Y2967D03*
X922Y2867D03*
X922Y2767D03*
X1322Y2967D03*
X1322Y2867D03*
X1322Y2767D03*
G54D12*
X2422Y3234D02*
X2422Y3000D01*
G54D13*
D02*
X1323Y2567D02*
X1322Y2734D01*
D02*
X1424Y2466D02*
X1323Y2567D01*
D02*
X1422Y2300D02*
X1424Y2466D01*
D02*
X689Y2867D02*
X555Y2867D01*
D02*
X1721Y1364D02*
X1722Y400D01*
D02*
X2389Y1367D02*
X1721Y1364D01*
D02*
X1920Y1166D02*
X1922Y400D01*
D02*
X2389Y1167D02*
X1920Y1166D01*
D02*
X1121Y2567D02*
X1122Y2734D01*
D02*
X1222Y2466D02*
X1121Y2567D01*
D02*
X1307Y2296D02*
X1222Y2466D01*
D02*
X355Y2967D02*
X489Y2967D01*
D02*
X958Y2300D02*
X924Y2734D01*
D02*
X689Y2967D02*
X555Y2967D01*
D02*
X489Y2867D02*
X355Y2867D01*
D02*
X1483Y2867D02*
X1360Y2867D01*
D02*
X889Y2867D02*
X755Y2867D01*
D02*
X1483Y2967D02*
X1360Y2967D01*
D02*
X955Y2867D02*
X1089Y2867D01*
D02*
X1920Y1868D02*
X1922Y2234D01*
D02*
X2389Y1867D02*
X1920Y1868D01*
D02*
X2389Y2967D02*
X2255Y2967D01*
D02*
X1823Y1766D02*
X1822Y2234D01*
D02*
X2389Y1767D02*
X1823Y1766D01*
D02*
X524Y2567D02*
X740Y2293D01*
D02*
X522Y2734D02*
X524Y2567D01*
D02*
X2255Y2567D02*
X2389Y2567D01*
D02*
X1289Y2867D02*
X1155Y2867D01*
D02*
X1619Y1466D02*
X1622Y400D01*
D02*
X2389Y1467D02*
X1619Y1466D01*
D02*
X1089Y2967D02*
X955Y2967D01*
D02*
X2383Y2867D02*
X2260Y2867D01*
D02*
X2422Y2700D02*
X2422Y2834D01*
D02*
X1520Y2668D02*
X1521Y2734D01*
D02*
X1621Y2567D02*
X1520Y2668D01*
D02*
X1622Y2300D02*
X1621Y2567D01*
D02*
X1522Y268D02*
X1522Y334D01*
D02*
X2520Y265D02*
X1522Y268D01*
D02*
X2520Y565D02*
X2520Y265D01*
D02*
X2455Y566D02*
X2520Y565D01*
D02*
X322Y2567D02*
X540Y2293D01*
D02*
X322Y2734D02*
X322Y2567D01*
D02*
X2389Y2667D02*
X2255Y2667D01*
D02*
X889Y2967D02*
X755Y2967D01*
D02*
X1823Y1268D02*
X1822Y400D01*
D02*
X2389Y1267D02*
X1823Y1268D01*
D02*
X1523Y1568D02*
X1522Y2234D01*
D02*
X2389Y1567D02*
X1523Y1568D01*
D02*
X1289Y2967D02*
X1155Y2967D01*
D02*
X1721Y1664D02*
X1722Y2234D01*
D02*
X2389Y1667D02*
X1721Y1664D01*
G54D12*
D02*
X1721Y3268D02*
X1721Y2866D01*
D02*
X1721Y2866D02*
X1560Y2867D01*
D02*
X2283Y3267D02*
X1721Y3268D01*
G54D13*
D02*
X721Y2567D02*
X722Y2734D01*
D02*
X847Y2297D02*
X721Y2567D01*
D02*
X2222Y2700D02*
X2222Y2834D01*
D02*
X2521Y666D02*
X2455Y667D01*
D02*
X2623Y666D02*
X2521Y666D01*
D02*
X1421Y167D02*
X2623Y167D01*
D02*
X2623Y167D02*
X2623Y666D01*
D02*
X1422Y334D02*
X1421Y167D01*
D02*
X1222Y2067D02*
X1293Y2067D01*
D02*
X1222Y400D02*
X1222Y2067D01*
D02*
X2422Y2534D02*
X2422Y2096D01*
D02*
X2623Y767D02*
X2455Y767D01*
D02*
X2623Y2667D02*
X2623Y767D01*
D02*
X2455Y2667D02*
X2623Y2667D01*
D02*
X2623Y3467D02*
X2623Y2868D01*
D02*
X2623Y2868D02*
X2466Y2867D01*
D02*
X1523Y3466D02*
X2623Y3467D01*
D02*
X1522Y3005D02*
X1523Y3466D01*
D02*
X220Y2469D02*
X124Y2967D01*
D02*
X124Y2967D02*
X283Y2967D01*
D02*
X431Y2292D02*
X220Y2469D01*
G04 End of Copper0*
M02*