; NON-PLATED HOLES START AT T1
; THROUGH (PLATED) HOLES START AT T100
M48
INCH
T100C0.043307
T101C0.035000
%
T100
X024217Y016668
X013217Y022668
X002607Y022668
X003217Y029669
X024217Y015668
X007217Y003668
X016217Y003668
X016217Y022668
X003217Y028668
X024217Y014668
X005607Y022668
X015217Y029669
X024217Y029668
X019217Y003668
X003217Y027668
X019217Y022668
X024217Y013668
X024217Y032669
X008607Y022668
X015217Y028668
X009217Y029669
X011217Y003668
X024217Y028668
X024217Y012668
X009217Y028668
X015217Y027668
X005217Y003668
X014217Y003668
X014217Y022668
X024217Y011668
X003607Y022668
X009217Y027668
X024217Y007668
X024217Y026668
X013217Y029669
X008217Y003668
X022217Y029668
X017217Y003668
X017217Y022668
X024217Y006668
X006607Y022668
X013217Y028668
X024217Y025668
X007217Y029669
X022217Y028668
X024217Y005668
X013217Y027668
X007217Y028668
X009607Y022668
X012217Y003668
X012217Y022668
X024217Y004668
X001607Y022668
X007217Y027668
X010607Y022668
X011217Y029669
X006217Y003668
X022217Y026668
X015217Y003668
X015217Y022668
X004607Y022668
X011217Y028668
X005217Y029669
X022217Y025668
X024217Y018668
X009217Y003668
X018217Y003668
X018217Y022668
X011217Y027668
X005217Y028668
X023217Y032669
X007607Y022668
X024217Y017668
X010217Y003668
X005217Y027668
T101
X024217Y020668
X013217Y020668
T00
M30
